<?xml version="1.0" encoding="UTF-8"?>
<svg version="1.1" xmlns="http://www.w3.org/2000/svg" width="898" height="793">
<path d="M0 0 C296.34 0 592.68 0 898 0 C898 261.69 898 523.38 898 793 C601.66 793 305.32 793 0 793 C0 531.31 0 269.62 0 0 Z " fill="#292929" transform="translate(0,0)"/>
<path d="M0 0 C7.29398755 5.11401759 13.52065536 11.85383553 15.765625 20.64453125 C16.52515995 27.84461258 17.15488715 35.72926216 13.1171875 42.07421875 C5.81341382 50.56010609 -7.08604901 52.09690566 -17.70166016 52.91015625 C-25.54121632 53.33955129 -33.38421488 53.54314864 -41.234375 53.64453125 C-37.84250976 60.60270051 -34.65506791 66.00801548 -27.27734375 68.94921875 C-15.84481354 71.56152989 -3.90450252 70.35491982 6.765625 65.64453125 C7.5184375 65.33644531 8.27125 65.02835937 9.046875 64.7109375 C10.63302768 64.05318768 12.20241279 63.35508226 13.765625 62.64453125 C13.30128832 70.4581968 12.72634094 77.9956112 7.078125 83.89453125 C-1.26015863 90.36023423 -15.08763106 91.7642673 -25.234375 90.64453125 C-33.63997199 89.34392097 -40.30737187 86.54764477 -47.234375 81.64453125 C-47.88277344 81.19207031 -48.53117187 80.73960937 -49.19921875 80.2734375 C-57.94905014 73.514815 -63.58109303 61.44597345 -65.234375 50.64453125 C-66.15860335 34.4172142 -63.35016419 21.92289341 -53.984375 8.39453125 C-39.50905633 -6.08078742 -18.07306898 -10.96390723 0 0 Z " fill="#F9F9F9" transform="translate(354.234375,347.35546875)"/>
<path d="M0 0 C6.72203057 1.56772341 14.39882978 4.69466327 19.125 9.875 C23.67881419 17.46469031 23.3978899 25.88874191 23.625 34.5 C23.66367188 35.70398438 23.70234375 36.90796875 23.7421875 38.1484375 C23.83585016 41.09881119 23.92157524 44.04918856 24 47 C24.67804688 46.32453125 25.35609375 45.6490625 26.0546875 44.953125 C33.03644454 38.26146866 39.49021363 33.09707498 49.5 32.5 C57.77906705 32.93804588 66.28600285 37.01934965 72 43 C76.5077019 49.98581663 78.12957675 56.26797122 78.11352539 64.53442383 C78.11341209 66.48588066 78.11341209 66.48588066 78.11329651 68.47676086 C78.10819062 69.88685139 78.10297464 71.29694151 78.09765625 72.70703125 C78.09578979 74.15720063 78.09436696 75.60737065 78.09336853 77.05754089 C78.0895613 80.86332966 78.07974642 84.66907991 78.06866455 88.47485352 C78.05841177 92.36278767 78.05386264 96.25072808 78.04882812 100.13867188 C78.03812246 107.75913209 78.0210677 115.37956064 78 123 C76.55715654 123.01396915 75.11427403 123.02394431 73.67138672 123.03222656 C72.86788788 123.03820862 72.06438904 123.04419067 71.23654175 123.050354 C66.30007944 122.93921338 61.56756078 121.51857451 58 118.0625 C56.32899603 114.61605432 55.8749733 111.45601951 55.82641602 107.6496582 C55.81292618 106.79809647 55.79943634 105.94653473 55.78553772 105.06916809 C55.77509933 104.15560043 55.76466095 103.24203278 55.75390625 102.30078125 C55.72095366 100.34960513 55.68774226 98.39843336 55.65429688 96.44726562 C55.60703004 93.38422782 55.56261203 90.32120585 55.52319336 87.25805664 C55.48318577 84.29294306 55.43170051 81.32819103 55.37890625 78.36328125 C55.3704921 77.45983475 55.36207794 76.55638824 55.35340881 75.62556458 C55.21692602 68.51256034 54.62155544 60.29006998 51 54 C48.60470331 52.67518454 48.60470331 52.67518454 46 52 C45.01 51.67 44.02 51.34 43 51 C37.64955335 50.48763384 33.31796182 50.35258016 28.4375 52.75 C25.25352982 55.6890494 24.13671786 57.57097245 23.7215271 61.91070557 C23.70820343 63.03877625 23.69487976 64.16684692 23.68115234 65.32910156 C23.66128265 66.61012756 23.64141296 67.89115356 23.62094116 69.21099854 C23.60906564 70.6042056 23.59740273 71.9974145 23.5859375 73.390625 C23.56722168 74.8198152 23.54764795 76.24899441 23.5272522 77.67816162 C23.47596852 81.43291736 23.43632284 85.18770892 23.39910889 88.94262695 C23.35904551 92.7769453 23.30796385 96.61111517 23.2578125 100.4453125 C23.16109785 107.96343972 23.07667899 115.4816389 23 123 C14.99431517 121.98278373 9.43549548 119.05542406 4.0625 112.9375 C-0.18426901 106.88907141 -0.28068021 101.98241027 -0.22705078 94.79370117 C-0.22734283 93.76884613 -0.22763489 92.74399109 -0.22793579 91.68807983 C-0.22654434 88.30628951 -0.21099157 84.92472051 -0.1953125 81.54296875 C-0.19158172 79.1959902 -0.18873506 76.84901009 -0.18673706 74.50202942 C-0.17910574 68.32886444 -0.15946144 62.15579377 -0.1373291 55.98266602 C-0.11685995 49.68181636 -0.10773305 43.38095145 -0.09765625 37.08007812 C-0.07621517 24.72001068 -0.04208517 12.36001319 0 0 Z " fill="#F9F9F9" transform="translate(151,315)"/>
<path d="M0 0 C7.15651356 1.72064612 14.22538409 5.25837327 19 11 C21.44719128 15.94784803 22.3915954 19.6483458 22.51171875 25.24609375 C22.52966995 25.90207047 22.54762115 26.55804718 22.56611633 27.23390198 C22.61972153 29.30170512 22.65395093 31.36928438 22.6875 33.4375 C22.72071743 34.85094231 22.75521111 36.26435523 22.79101562 37.67773438 C22.87541619 41.11827446 22.94246279 44.55889366 23 48 C23.51006592 47.39164307 24.02013184 46.78328613 24.5456543 46.15649414 C30.59622417 39.11409705 36.47152554 34.13500432 45.8984375 32.49609375 C54.37876982 32.12790005 60.76472262 34.95267997 67.25 40.25 C73.36698471 45.93965044 76.79412471 51.68101936 77.12025452 60.10688782 C77.11803391 61.26826767 77.11581329 62.42964752 77.11352539 63.6262207 C77.11367142 64.27068649 77.11381744 64.91515228 77.1139679 65.57914734 C77.11327506 67.69472704 77.10551231 69.81021706 77.09765625 71.92578125 C77.09578983 73.39837089 77.09436699 74.87096115 77.09336853 76.34355164 C77.08956096 80.20852388 77.07974579 84.0734582 77.06866455 87.93841553 C77.0584125 91.88667284 77.05386279 95.83493632 77.04882812 99.78320312 C77.03812187 107.52215265 77.02106669 115.261071 77 123 C75.5571529 123.01301674 74.11427189 123.02231175 72.67138672 123.0300293 C71.86788788 123.03560349 71.06438904 123.04117767 70.23654175 123.04692078 C66.15666147 122.9613283 62.60288274 121.88366484 59 120 C55.65737207 115.92617221 54.89048593 111.70435202 54.82641602 106.54199219 C54.81292618 105.66718201 54.79943634 104.79237183 54.78553772 103.89105225 C54.77509933 102.95247375 54.76466095 102.01389526 54.75390625 101.046875 C54.7209594 99.04556868 54.6877479 97.04426671 54.65429688 95.04296875 C54.60698227 91.89863141 54.56255396 88.75431062 54.52319336 85.60986328 C54.48326122 82.56784747 54.4317623 79.52618998 54.37890625 76.484375 C54.3704921 75.55389343 54.36207794 74.62341187 54.35340881 73.66473389 C54.22735568 66.94306964 54.04933699 60.54782436 49.6875 55.125 C44.66147743 51.15093564 40.01537435 50.44960254 33.734375 50.54296875 C29.3825851 51.27033935 26.66230778 53.55909277 24 57 C22.907072 60.278784 22.84216128 62.76284411 22.79467773 66.21557617 C22.77473251 67.4966777 22.75478729 68.77777924 22.73423767 70.09770203 C22.7172546 71.49612304 22.70037575 72.89454531 22.68359375 74.29296875 C22.66301834 75.7235829 22.64202171 77.15419105 22.62062073 78.58479309 C22.56546067 82.34780006 22.51602471 86.11086135 22.46777344 89.8739624 C22.41751407 93.71485216 22.36185117 97.55566316 22.30664062 101.39648438 C22.19913327 108.93092287 22.09767189 116.46542691 22 124 C20.55011678 123.53137225 19.10145383 123.05896793 17.65332031 122.58496094 C16.8464679 122.32229431 16.03961548 122.05962769 15.20831299 121.78900146 C8.30153745 119.32130054 3.72955519 114.10290849 0 108 C-1.306096 103.85557924 -1.14007124 99.70322783 -1.12939453 95.39868164 C-1.13114685 94.53140442 -1.13289917 93.6641272 -1.13470459 92.77056885 C-1.13910835 89.90041099 -1.13618796 87.03031475 -1.1328125 84.16015625 C-1.13348651 82.15677377 -1.13445735 80.15339136 -1.13571167 78.15000916 C-1.1371871 73.94431787 -1.13504107 69.7386478 -1.13037109 65.53295898 C-1.12470699 60.17370164 -1.1279326 54.81449474 -1.13394356 49.4552393 C-1.13758169 45.31222667 -1.13639517 41.1692257 -1.13381577 37.02621269 C-1.13315374 35.05249462 -1.13394929 33.07877546 -1.13629532 31.10505867 C-1.14595296 20.68536185 -1.05569734 10.37660945 0 0 Z " fill="#F9F9F9" transform="translate(595,315)"/>
<path d="M0 0 C7.01116185 -0.12954889 10.54561624 1.94151191 15.73828125 6.5390625 C23.26191232 14.41740571 23.47678901 24.77005975 23.6875 35.125 C23.73874023 36.84589844 23.73874023 36.84589844 23.79101562 38.6015625 C23.87266424 41.40094374 23.94208092 44.20004449 24 47 C24.54124512 46.37859131 25.08249023 45.75718262 25.64013672 45.11694336 C26.35443848 44.30362549 27.06874023 43.49030762 27.8046875 42.65234375 C28.51093262 41.84531006 29.21717773 41.03827637 29.94482422 40.20678711 C35.16338999 34.60324517 41.06061926 32.00959599 48.625 31.5625 C56.63181491 31.7557263 64.25387866 34.92298607 70.0625 40.4375 C79.35420197 50.24934813 78.30405234 65.45136897 78.1953125 78.0546875 C78.1924826 79.32224884 78.18965271 80.58981018 78.18673706 81.89578247 C78.17754003 85.21324673 78.15967593 88.53050388 78.1373291 91.84790039 C78.11661246 95.25404368 78.10768104 98.66021769 78.09765625 102.06640625 C78.07577069 108.71101612 78.04242711 115.35549119 78 122 C75.74424973 121.88236424 73.48913969 121.75240448 71.234375 121.6171875 C69.97850586 121.54612793 68.72263672 121.47506836 67.42871094 121.40185547 C63.02811998 120.88609267 61.17923931 120.0026149 58 117 C53.90387027 110.85580541 54.84222761 102.3741504 54.75390625 95.1796875 C54.72099459 93.32681772 54.68778253 91.47395325 54.65429688 89.62109375 C54.60682967 86.74010522 54.56228484 83.85914225 54.52319336 80.97802734 C54.4833384 78.17004234 54.43186665 75.36245175 54.37890625 72.5546875 C54.3704921 71.70035126 54.36207794 70.84601501 54.35340881 69.96578979 C54.19243843 61.60306214 54.19243843 61.60306214 50.59765625 54.2578125 C44.51875071 49.77210612 39.41001628 49.21665542 32 50 C28.08924075 51.98968453 26.42310902 53.36533646 24 57 C22.49935092 64.42177508 22.86792532 72.25642884 22.90234375 79.7890625 C22.90446617 81.56571793 22.90446617 81.56571793 22.90663147 83.37826538 C22.91218791 87.12720361 22.92473218 90.8760801 22.9375 94.625 C22.94252063 97.18098872 22.94708255 99.73697838 22.95117188 102.29296875 C22.96214304 108.52866658 22.97883724 114.76432887 23 121 C15.68804091 121.14145956 11.69364949 119.57611423 6 115 C2.17879301 110.37799337 -0.12756011 105.74732818 -0.12025452 99.69099426 C-0.12162918 98.81179825 -0.12300385 97.93260223 -0.12442017 97.02676392 C-0.12082489 96.06507294 -0.11722961 95.10338196 -0.11352539 94.11254883 C-0.11367142 93.09773941 -0.11381744 92.08292999 -0.1139679 91.03736877 C-0.11327026 87.67723465 -0.10548478 84.31715571 -0.09765625 80.95703125 C-0.09579154 78.62961355 -0.09436789 76.30219546 -0.09336853 73.97477722 C-0.08954751 67.84435953 -0.07972074 61.71396547 -0.06866455 55.58355713 C-0.05844152 49.32979655 -0.05386899 43.07603215 -0.04882812 36.82226562 C-0.03809813 24.54816669 -0.02102666 12.27408531 0 0 Z " fill="#FAFAFA" transform="translate(451,316)"/>
<path d="M0 0 C5.82470448 6.57146146 7.60401864 13.09103046 7.4375 21.75 C4.29047467 20.72494152 1.18601851 19.65293697 -1.90234375 18.4609375 C-11.79588498 14.78711437 -22.54437129 12.062857 -32.875 16.0625 C-35.77803887 17.62948487 -35.77803887 17.62948487 -37.5625 20.75 C-38.14583333 23.75 -38.14583333 23.75 -37.5625 26.75 C-32.46790956 30.96695091 -25.32053419 31.45614716 -19.01757812 32.6796875 C-9.65751716 34.6353291 0.48499856 38.10356937 6.1875 46.25 C9.56168268 52.99836535 9.53159315 61.39146589 7.71875 68.61328125 C4.51185049 77.13484084 0.14999302 81.8222689 -8.0625 85.671875 C-19.1005845 90.43204894 -31.98668264 91.72532518 -43.5625 87.75 C-49.58418206 85.13402337 -53.85597797 82.19395424 -57.5625 76.75 C-58.67386523 73.4858015 -58.66582427 70.42923866 -58.625 67 C-58.61597656 66.01515625 -58.60695313 65.0303125 -58.59765625 64.015625 C-58.58605469 63.26796875 -58.57445312 62.5203125 -58.5625 61.75 C-57.70527344 62.08773437 -56.84804688 62.42546875 -55.96484375 62.7734375 C-54.24974609 63.44246094 -54.24974609 63.44246094 -52.5 64.125 C-50.81197266 64.78628906 -50.81197266 64.78628906 -49.08984375 65.4609375 C-39.84908956 68.8379573 -28.78937027 71.25324811 -19.25 67.4375 C-16.34696113 65.87051513 -16.34696113 65.87051513 -14.5625 62.75 C-13.97916667 59.75 -13.97916667 59.75 -14.5625 56.75 C-17.95726192 54.25628625 -21.15372866 53.17003524 -25.23828125 52.28515625 C-26.31400391 52.04216797 -27.38972656 51.79917969 -28.49804688 51.54882812 C-30.73734936 51.06055916 -32.97693043 50.57356593 -35.21679688 50.08789062 C-45.83870424 47.68448591 -53.16682515 44.87402367 -59.5625 35.75 C-62.72069787 29.02166542 -62.04113702 22.28517301 -59.7890625 15.37109375 C-54.92555262 4.97805194 -44.98354393 -1.35718029 -34.5625 -5.25 C-23.40655648 -7.97096183 -9.4713641 -7.03791539 0 0 Z " fill="#F9F9F9" transform="translate(436.5625,348.25)"/>
<path d="M0 0 C4.3693421 3.59923542 7.47003765 7.17227355 9.60546875 12.421875 C9.90147852 15.78651942 9.8492958 19.05570716 9.60546875 22.421875 C6.45844342 21.39681652 3.35398726 20.32481197 0.265625 19.1328125 C-9.62791623 15.45898937 -20.37640254 12.734732 -30.70703125 16.734375 C-33.61007012 18.30135987 -33.61007012 18.30135987 -35.39453125 21.421875 C-35.97786458 24.421875 -35.97786458 24.421875 -35.39453125 27.421875 C-30.94012467 31.10281768 -25.33823235 31.64330577 -19.83203125 32.734375 C1.03874222 37.18297403 1.03874222 37.18297403 7.60546875 46.421875 C11.45601748 53.23217388 11.73090694 60.87171631 9.87890625 68.359375 C7.3212622 76.0115133 4.19430196 81.24916067 -3.08203125 85.109375 C-14.6679218 90.39895684 -26.63323643 92.56714148 -39.234375 89.24609375 C-45.52748792 86.84492408 -51.90195599 83.34406783 -55.39453125 77.421875 C-57.02164364 72.67613054 -56.48128435 67.38608043 -56.39453125 62.421875 C-55.53730469 62.75960937 -54.68007812 63.09734375 -53.796875 63.4453125 C-52.08177734 64.11433594 -52.08177734 64.11433594 -50.33203125 64.796875 C-48.64400391 65.45816406 -48.64400391 65.45816406 -46.921875 66.1328125 C-40.62296201 68.43474083 -35.05067756 69.76633811 -28.33203125 69.734375 C-27.65076172 69.75048828 -26.96949219 69.76660156 -26.26757812 69.78320312 C-21.56906038 69.78771659 -18.35780707 68.93646456 -14.39453125 66.421875 C-12.07885741 62.94836425 -11.79865548 61.50788028 -12.39453125 57.421875 C-15.78929317 54.92816125 -18.98575991 53.84191024 -23.0703125 52.95703125 C-24.14603516 52.71404297 -25.22175781 52.47105469 -26.33007812 52.22070312 C-28.56938061 51.73243416 -30.80896168 51.24544093 -33.04882812 50.75976562 C-41.99008248 48.73664001 -50.82626684 46.26254637 -56.39453125 38.421875 C-59.63409497 31.72270172 -60.3399414 25.3225516 -58.39453125 18.109375 C-55.25735519 9.5587463 -49.11464375 2.91211612 -41.16015625 -1.39453125 C-27.9426512 -7.05117536 -12.41568271 -8.18260329 0 0 Z " fill="#F9F9F9" transform="translate(136.39453125,347.578125)"/>
<path d="M0 0 C5.72763433 4.63514112 9.37688144 10.16050335 10.734375 17.45703125 C10.80228175 19.70610277 10.81937484 21.9570473 10.796875 24.20703125 C10.78785156 25.3775 10.77882813 26.54796875 10.76953125 27.75390625 C10.75792969 28.6459375 10.74632812 29.53796875 10.734375 30.45703125 C8.734375 29.45703125 8.734375 29.45703125 8.05859375 27.6015625 C7.84847656 26.83199219 7.63835938 26.06242187 7.421875 25.26953125 C5.53057141 19.37091115 2.58270065 15.3135459 -2.765625 12.08203125 C-8.79163434 9.36060768 -16.19209715 9.17821651 -22.48046875 11.15234375 C-28.72168391 14.40269213 -32.5771128 20.13902757 -35.265625 26.45703125 C-38.07535989 37.24405541 -37.60476467 50.63371219 -32.265625 60.45703125 C-29.42785776 65.10509828 -25.47966605 68.71901757 -20.265625 70.45703125 C-11.17769664 71.69946692 -2.3674694 69.94435218 5.109375 64.58203125 C10.06457044 60.72330459 13.12903975 56.06065125 15.859375 50.45703125 C16.35695313 49.44640625 16.85453125 48.43578125 17.3671875 47.39453125 C21.36715074 38.80032452 21.87560385 31.46893303 21.796875 22.08203125 C21.79236328 21.05980469 21.78785156 20.03757812 21.78320312 18.984375 C21.771478 16.47519931 21.75506676 13.96614635 21.734375 11.45703125 C30.04462303 22.32711348 32.0130561 35.02428857 30.734375 48.45703125 C28.88358842 57.56290124 24.99664117 65.83786277 19.734375 73.45703125 C18.868125 74.81828125 18.868125 74.81828125 17.984375 76.20703125 C9.55794693 84.63345932 -2.25970543 88.54989683 -13.953125 88.70703125 C-25.98790408 88.56913274 -35.86521779 84.74858799 -44.5625 76.19921875 C-55.57890505 63.31913616 -57.47908454 48.76103399 -56.265625 32.45703125 C-55.02923412 23.78219115 -51.86044453 16.18382589 -46.265625 9.45703125 C-45.69070313 8.75964844 -45.11578125 8.06226563 -44.5234375 7.34375 C-32.72943447 -5.64922844 -14.94794419 -10.18006544 0 0 Z " fill="#F7F7F7" transform="translate(733.265625,350.54296875)"/>
<path d="M0 0 C0 7.26 0 14.52 0 22 C3.3 22.33 6.6 22.66 10 23 C14.35695121 25.8281964 15.73113209 26.92452837 17 32 C11.39 32 5.78 32 0 32 C0.09409127 38.5106568 0.20030518 45.0209659 0.31738281 51.53125 C0.35548484 53.74245907 0.39036921 55.95372617 0.421875 58.16503906 C0.46793585 61.35763175 0.52585998 64.54983139 0.5859375 67.7421875 C0.59748871 68.71864227 0.60903992 69.69509705 0.62094116 70.70114136 C0.77617677 78.04678354 1.67015523 85.0104657 4 92 C12.52055183 95.94854841 22.95236292 93.71161191 32 93 C31.35150619 105.56736278 31.35150619 105.56736278 28 110 C19.67648067 115.5971605 10.11974447 116.05370788 0.4375 114.375 C-7.63288351 112.33601618 -14.41450267 106.86264907 -19 100 C-21.77311498 93.66145147 -22.11842917 86.86240866 -22.19287109 80.01416016 C-22.20104858 79.35459824 -22.20922607 78.69503632 -22.21765137 78.01548767 C-22.24224082 75.85668797 -22.258949 73.6979526 -22.2734375 71.5390625 C-22.27876118 70.79546856 -22.28408485 70.05187462 -22.28956985 69.28574753 C-22.31618153 65.35261827 -22.33559753 61.4195195 -22.35009766 57.48632812 C-22.36344419 54.24873656 -22.3913263 51.01177414 -22.43212891 47.77441406 C-22.48164806 43.84347999 -22.50624038 39.91311657 -22.51332474 35.981884 C-22.51999977 34.49323649 -22.53512319 33.00459987 -22.55921555 31.51613235 C-22.70596456 21.90493049 -22.13593725 14.39976133 -15.25692749 7.16738892 C-10.9826364 3.12761433 -6.0191799 0 0 0 Z " fill="#FAFAFA" transform="translate(557,323)"/>
<path d="M0 0 C1.05755493 -0.0165564 1.05755493 -0.0165564 2.13647461 -0.03344727 C7.49143178 0.11367041 10.77053287 1.59968005 15.1875 4.625 C20.09608684 10.82532022 20.21811104 15.048768 20.1875 22.625 C19.22710815 22.5935791 19.22710815 22.5935791 18.24731445 22.56152344 C15.33170425 22.47810716 12.41634548 22.42626031 9.5 22.375 C8.49259766 22.34148437 7.48519531 22.30796875 6.44726562 22.2734375 C2.11917247 22.21630096 -0.97079374 22.21108108 -4.89453125 24.140625 C-10.05035736 30.81904742 -9.15107912 40.07316333 -9.2265625 48.09375 C-9.24592865 49.36980103 -9.2652948 50.64585205 -9.2852478 51.96057129 C-9.33467719 55.327339 -9.37603887 58.69400392 -9.41339111 62.06091309 C-9.45364026 65.50685157 -9.50463637 68.95262991 -9.5546875 72.3984375 C-9.6504575 79.14052145 -9.73558226 85.88267603 -9.8125 92.625 C-11.25607955 92.63801475 -12.69969296 92.64731085 -14.14331055 92.6550293 C-14.94721725 92.66060349 -15.75112396 92.66617767 -16.57939148 92.67192078 C-22.03925951 92.55720121 -26.50803489 90.96207673 -30.3125 87.0625 C-32.50871556 83.49364972 -32.9464949 81.61373249 -32.98950195 77.43188477 C-33.00233719 76.34637833 -33.01517242 75.26087189 -33.02839661 74.14247131 C-33.03947701 72.37231911 -33.03947701 72.37231911 -33.05078125 70.56640625 C-33.058853 69.35234604 -33.06692474 68.13828583 -33.07524109 66.88743591 C-33.08909758 64.30916782 -33.09981269 61.73088126 -33.10766602 59.15258789 C-33.12479311 55.23482596 -33.16865679 51.31792663 -33.21289062 47.40039062 C-33.22302498 44.89323536 -33.23153875 42.38607293 -33.23828125 39.87890625 C-33.25578934 38.71702286 -33.27329742 37.55513947 -33.29133606 36.35804749 C-33.26308411 25.60144442 -30.83797877 16.44950219 -23.18359375 8.640625 C-16.07820209 2.6004568 -9.21975034 0.11315649 0 0 Z " fill="#F8F8F8" transform="translate(267.8125,345.375)"/>
<path d="M0 0 C0.67155349 2.26949102 1.3373963 4.5403961 2 6.8125 C2.37125 8.07707031 2.7425 9.34164063 3.125 10.64453125 C4 14 4 14 4 17 C3.34 17 2.68 17 2 17 C2 17.66 2 18.32 2 19 C4.97 19.33 7.94 19.66 11 20 C8.16340307 29.23215397 8.16340307 29.23215397 3.875 32.0625 C3.28074219 32.33191406 2.68648437 32.60132813 2.07421875 32.87890625 C-3.52904748 35.90741361 -9.53646571 41.03698367 -12 47 C-12.28875 47.66 -12.5775 48.32 -12.875 49 C-13.2488015 51.24082771 -13.2488015 51.24082771 -11.0625 53.25 C-10.0415625 54.11625 -10.0415625 54.11625 -9 55 C-9.33 55.99 -9.66 56.98 -10 58 C-13 58 -13 58 -15.0625 56.25 C-18.41098237 53.68520499 -21.63323766 52.43074121 -25.55078125 50.94921875 C-28.48441641 49.81225967 -31.21819208 48.46410943 -34 47 C-34 46.34 -34 45.68 -34 45 C-29.38 45 -24.76 45 -20 45 C-20 43.35 -20 41.7 -20 40 C-20.99 40.99 -21.98 41.98 -23 43 C-23.06058594 41.94941406 -23.12117187 40.89882813 -23.18359375 39.81640625 C-23.61546473 32.51717848 -24.09263954 25.25888365 -25 18 C-25.66 18 -26.32 18 -27 18 C-26.01 14.37 -25.02 10.74 -24 7 C-20.67492328 8.66253836 -19.4417973 9.5582027 -17 12 C-16.34 12 -15.68 12 -15 12 C-15 10.68 -15 9.36 -15 8 C-12.87885799 6.36283687 -10.93177178 5.06398392 -8.625 3.75 C-8.02171875 3.38648438 -7.4184375 3.02296875 -6.796875 2.6484375 C-2.31643562 0 -2.31643562 0 0 0 Z " fill="#3E3222" transform="translate(749,296)"/>
<path d="M0 0 C4.66933341 2.08123249 7.00580578 5.43521429 8.9375 10.0625 C9.97739309 13.1074564 10.0945519 15.79079718 10 19 C-2.01976388 22.49968862 -14.54435565 23.00216083 -27 22 C-27.33 21.67 -27.66 21.34 -28 21 C-27.86266399 14.40787151 -25.07688968 10.06671146 -21 5 C-14.53421309 -0.8779881 -8.56459663 -0.98454626 0 0 Z " fill="#2D2D2D" transform="translate(340,361)"/>
<path d="M0 0 C3.6820864 2.81001331 5.12971388 5.16557894 5.8125 9.75 C5.25893677 13.6249426 3.78326469 15.76675348 1.375 18.8125 C-1.99421177 20.49710589 -5.7359862 20.12342974 -9.4375 20.1875 C-10.64889648 20.24357422 -10.64889648 20.24357422 -11.88476562 20.30078125 C-16.2528268 20.36517527 -18.06156101 20.24310751 -21.640625 17.5078125 C-24.11212031 14.15086021 -24.55091841 11.96106877 -24.625 7.8125 C-23.6784468 4.34180495 -22.44344694 2.06725755 -19.625 -0.1875 C-13.44163056 -2.24862315 -6.15398414 -2.01596032 0 0 Z " fill="#F0F0F0" transform="translate(801.625,384.1875)"/>
<path d="M0 0 C9.57 0 19.14 0 29 0 C29 1.65 29 3.3 29 5 C21.08 5.495 21.08 5.495 13 6 C14.794375 6.474375 16.58875 6.94875 18.4375 7.4375 C23.875 8.875 23.875 8.875 25 10 C25 11.65 25 13.3 25 15 C21.04 16.32 17.08 17.64 13 19 C17.95 19.33 22.9 19.66 28 20 C28 21.65 28 23.3 28 25 C18.76 25 9.52 25 0 25 C0 22.36 0 19.72 0 17 C5.28 15.68 10.56 14.36 16 13 C12.5701798 11.2850899 9.37998493 10.05869074 5.75 8.875 C4.67234375 8.52179688 3.5946875 8.16859375 2.484375 7.8046875 C1.66453125 7.53914063 0.8446875 7.27359375 0 7 C0 4.69 0 2.38 0 0 Z " fill="#EFEFEF" transform="translate(778,353)"/>
<path d="M0 0 C0.50806447 1.72681437 1.00610467 3.45657979 1.5 5.1875 C1.7784375 6.15042969 2.056875 7.11335938 2.34375 8.10546875 C2.96677608 10.85345876 3.12302812 13.19598416 3 16 C0.525 15.505 0.525 15.505 -2 15 C-2.400979 16.05997192 -2.400979 16.05997192 -2.81005859 17.14135742 C-4.05251456 20.12615776 -5.4910808 22.9003148 -7.0390625 25.73828125 C-7.90917969 27.33833008 -7.90917969 27.33833008 -8.796875 28.97070312 C-9.40015625 30.07349609 -10.0034375 31.17628906 -10.625 32.3125 C-11.23601563 33.43462891 -11.84703125 34.55675781 -12.4765625 35.71289062 C-13.98191092 38.47661624 -15.48980241 41.23892206 -17 44 C-17.66 43.67 -18.32 43.34 -19 43 C-18.78794922 42.13721436 -18.57589844 41.27442871 -18.35742188 40.38549805 C-17.57195107 37.18254663 -16.7895724 33.97887273 -16.00927734 30.7746582 C-15.67099591 29.38828813 -15.33148648 28.00221708 -14.99072266 26.61645508 C-14.5009933 24.62398475 -14.01569722 22.63047905 -13.53125 20.63671875 C-13.23798828 19.43748779 -12.94472656 18.23825684 -12.64257812 17.00268555 C-11.89536849 14.02284899 -11.89536849 14.02284899 -12 11 C-12.99 10.67 -13.98 10.34 -15 10 C-15 9.34 -15 8.68 -15 8 C-12.89980986 6.52690889 -10.82232271 5.18690365 -8.625 3.875 C-8.02171875 3.50246094 -7.4184375 3.12992187 -6.796875 2.74609375 C-2.27034684 0 -2.27034684 0 0 0 Z " fill="#E59D37" transform="translate(749,296)"/>
<path d="M0 0 C6.41253644 2.29883382 6.41253644 2.29883382 8.9375 5.3125 C10.20332785 8.51429985 10.42723594 10.58211249 10 14 C8.78898425 16.66423464 7.82379488 18.42029249 5.41796875 20.11328125 C1.84557505 21.42335131 -1.68025438 21.40862279 -5.4375 21.4375 C-6.18837891 21.47037109 -6.93925781 21.50324219 -7.71289062 21.53710938 C-11.87712186 21.57739657 -13.5406781 21.34751328 -16.96875 18.75390625 C-19.83402839 14.86924998 -20.4320903 11.77027697 -20 7 C-18.4375 4 -18.4375 4 -16 2 C-12.75 1.1875 -12.75 1.1875 -10 1 C-9.8125 3.375 -9.8125 3.375 -10 6 C-10.99 6.66 -11.98 7.32 -13 8 C-13.33343551 10.54207971 -13.33343551 10.54207971 -13 13 C-11.86687244 14.35860893 -11.86687244 14.35860893 -8.875 14.1328125 C-7.59625 14.13023437 -6.3175 14.12765625 -5 14.125 C-3.72125 14.12757813 -2.4425 14.13015625 -1.125 14.1328125 C1.86687244 14.35860893 1.86687244 14.35860893 3 13 C3.33343551 10.54207971 3.33343551 10.54207971 3 8 C2.01 7.34 1.02 6.68 0 6 C-0.1875 2.875 -0.1875 2.875 0 0 Z " fill="#EBEBEB" transform="translate(797,408)"/>
<path d="M0 0 C2.93052231 1.99524923 4.64521503 3.42836485 5.4453125 6.97265625 C5.64529931 10.53908774 5.30896766 12.59834205 3.125 15.4375 C-0.41699942 18.04191134 -2.58936125 18.43241556 -7 18 C-9.69990662 16.20006226 -11.5418865 14.916227 -13 12 C-13.43023798 8.12785818 -13.31669086 6.47503629 -11.125 3.1875 C-7.5841408 -0.45750212 -5.02152545 -0.5106636 0 0 Z " fill="#D5963D" transform="translate(439,462)"/>
<path d="M0 0 C2.9375 2 2.9375 2 5 5 C5.78202493 9.458441 4.92746849 13.62113238 4 18 C-5.77254826 18.7701658 -5.77254826 18.7701658 -10.1875 16 C-12.1856297 12.69275084 -12.74718089 10.74355439 -12.48046875 6.9375 C-10.88407391 0.50000534 -5.96284033 -1.06479292 0 0 Z " fill="#D7973D" transform="translate(92,462)"/>
<path d="M0 0 C2.75329021 1.79562405 4.52627461 3.05254922 6 6 C6.43023798 9.87214182 6.31669086 11.52496371 4.125 14.8125 C1.43302791 17.58364773 0.549607 17.9274104 -3.3125 18.4375 C-7 18 -7 18 -9.9375 15.4375 C-11.72861311 12.91447024 -12.06468531 11.63129375 -12.625 8.4375 C-11.31842905 1.25135978 -6.9949306 -1.12418528 0 0 Z " fill="#D5963E" transform="translate(669,462)"/>
<path d="M0 0 C-2.83659693 9.23215397 -2.83659693 9.23215397 -7.125 12.0625 C-7.72183594 12.330625 -8.31867187 12.59875 -8.93359375 12.875 C-12.66852865 14.90838611 -15.57686077 17.99224951 -18.66796875 20.87890625 C-20.70428054 22.73102904 -22.76786364 24.39388809 -25 26 C-23.67709921 18.00569628 -19.78572538 11.29585111 -14.234375 5.47265625 C-12.76271053 3.89990505 -12.76271053 3.89990505 -12 1 C-7.9472484 0.01751476 -4.16138263 -0.08159574 0 0 Z " fill="#E99F37" transform="translate(760,316)"/>
<path d="M0 0 C9.57 0 19.14 0 29 0 C29 1.65 29 3.3 29 5 C21.08 5.495 21.08 5.495 13 6 C14.32 6.33 15.64 6.66 17 7 C17 7.99 17 8.98 17 10 C12.61078349 11.29477815 9.94228883 10.6054454 5.6875 9.0625 C4.61886719 8.68222656 3.55023437 8.30195313 2.44921875 7.91015625 C1.64097656 7.60980469 0.83273437 7.30945313 0 7 C0 4.69 0 2.38 0 0 Z " fill="#E9E9E9" transform="translate(778,353)"/>
<path d="M0 0 C4.53786224 2.26893112 5.94678157 4.09866534 9 8 C8.67 8.66 8.34 9.32 8 10 C7.70510114 12.30955442 7.43894333 14.62281143 7.1875 16.9375 C6.38507805 23.70415597 4.69244359 29.71327491 2 36 C1.67 36 1.34 36 1 36 C0.93941406 34.94941406 0.87882813 33.89882813 0.81640625 32.81640625 C0.38453527 25.51717848 -0.09263954 18.25888365 -1 11 C-1.66 11 -2.32 11 -3 11 C-2.01 7.37 -1.02 3.74 0 0 Z " fill="#E89E39" transform="translate(725,303)"/>
<path d="M0 0 C9.22661871 -0.48561151 9.22661871 -0.48561151 12.6875 1.6875 C14 4 14 4 13.875 6.5625 C13 9 13 9 11 12 C11.99 13.98 12.98 15.96 14 18 C12.68 18 11.36 18 10 18 C7 13.92857143 7 13.92857143 7 11 C6.01 11 5.02 11 4 11 C4 13.31 4 15.62 4 18 C2.68 18 1.36 18 0 18 C0 12.06 0 6.12 0 0 Z " fill="#C88D3B" transform="translate(597,462)"/>
<path d="M0 0 C9.625 -0.25 9.625 -0.25 13 2 C13.32076658 5.46427904 13.52723896 8.0041042 11.875 11.125 C10.69204203 13.10723196 10.69204203 13.10723196 11.875 15.75 C12.24625 16.4925 12.6175 17.235 13 18 C11.1875 17.8125 11.1875 17.8125 9 17 C7.96986723 15.35178756 6.96885372 13.68496298 6 12 C5.01 11.67 4.02 11.34 3 11 C3 13.31 3 15.62 3 18 C2.01 18 1.02 18 0 18 C0 12.06 0 6.12 0 0 Z " fill="#DB9A3D" transform="translate(696,462)"/>
<path d="M0 0 C9 0 9 0 12 1 C13.35439668 3.70879335 13.06501451 6.00933268 13 9 C12.01 9.33 11.02 9.66 10 10 C10.495 10.94875 10.99 11.8975 11.5 12.875 C13 16 13 16 13 18 C11.1875 17.8125 11.1875 17.8125 9 17 C7.96986723 15.35178756 6.96885372 13.68496298 6 12 C5.01 11.67 4.02 11.34 3 11 C3 13.31 3 15.62 3 18 C2.01 18 1.02 18 0 18 C0 12.06 0 6.12 0 0 Z " fill="#DB9B3E" transform="translate(503,462)"/>
<path d="M0 0 C1.8871875 0.00773437 1.8871875 0.00773437 3.8125 0.015625 C5.070625 0.01046875 6.32875 0.0053125 7.625 0 C10.8125 0.265625 10.8125 0.265625 12.8125 2.265625 C13.0625 5.265625 13.0625 5.265625 12.8125 8.265625 C10.8125 10.265625 10.8125 10.265625 7.625 10.53125 C5.7378125 10.52351563 5.7378125 10.52351563 3.8125 10.515625 C2.554375 10.52078125 1.29625 10.5259375 0 10.53125 C-3.1875 10.265625 -3.1875 10.265625 -5.1875 8.265625 C-5.4375 5.265625 -5.4375 5.265625 -5.1875 2.265625 C-3.1875 0.265625 -3.1875 0.265625 0 0 Z " fill="#313131" transform="translate(788.1875,388.734375)"/>
<path d="M0 0 C2.328125 0.10546875 2.328125 0.10546875 5 1 C6.546875 3.80078125 6.546875 3.80078125 7.75 7.3125 C8.15734375 8.46363281 8.5646875 9.61476563 8.984375 10.80078125 C9.74472342 13.19587878 10.4438839 15.5518802 11 18 C9.0625 17.625 9.0625 17.625 7 17 C6.67 16.34 6.34 15.68 6 15 C4.10466658 14.53476937 4.10466658 14.53476937 1.9375 14.375 C0.638125 14.25125 -0.66125 14.1275 -2 14 C-2.33 15.32 -2.66 16.64 -3 18 C-3.99 18 -4.98 18 -6 18 C-5.41347648 13.51006131 -4.2356462 9.77456816 -2.4375 5.625 C-1.98246094 4.56539063 -1.52742187 3.50578125 -1.05859375 2.4140625 C-0.70925781 1.61742187 -0.35992187 0.82078125 0 0 Z " fill="#DC9B3D" transform="translate(160,462)"/>
<path d="M0 0 C9.625 -0.25 9.625 -0.25 13 2 C13.3125 5.5 13.3125 5.5 13 9 C11 11 11 11 9.0546875 11.1953125 C7.03645833 11.13020833 5.01822917 11.06510417 3 11 C3 13.31 3 15.62 3 18 C2.01 18 1.02 18 0 18 C0 12.06 0 6.12 0 0 Z " fill="#CC9441" transform="translate(563,462)"/>
<path d="M0 0 C3.92671231 1.3089041 6.43926031 2.7076204 9 6 C10.11119632 10.80323569 10.12005032 15.47879558 10.0625 20.375 C10.05798828 21.11105469 10.05347656 21.84710938 10.04882812 22.60546875 C10.03715142 24.40368158 10.01922011 26.20185197 10 28 C7.64756869 25.64756869 7.08414977 23.81713547 6 20.6875 C4.74304132 17.08847378 3.44032952 13.53009332 2 10 C1.34 10 0.68 10 0 10 C0 6.7 0 3.4 0 0 Z " fill="#DF9B39" transform="translate(711,309)"/>
<path d="M0 0 C-5.06336212 7.76382191 -5.06336212 7.76382191 -7.8125 8.45703125 C-8.534375 8.57433594 -9.25625 8.69164062 -10 8.8125 C-15.49807283 9.91211457 -20.11130039 12.32601399 -25 15 C-19.83929604 4.38816286 -12.10302458 -3.00680569 0 0 Z " fill="#E69D39" transform="translate(766,330)"/>
<path d="M0 0 C3.5625 0.3125 3.5625 0.3125 5.5 1.8125 C5.850625 2.3075 6.20125 2.8025 6.5625 3.3125 C3.08426885 4.47191038 1.10354422 4.02070884 -2.4375 3.3125 C-2.1075 4.3025 -1.7775 5.2925 -1.4375 6.3125 C0.87354818 7.36297644 3.20833651 8.36257438 5.5625 9.3125 C6.2225 9.9725 6.8825 10.6325 7.5625 11.3125 C7.375 13.8125 7.375 13.8125 6.5625 16.3125 C2.87532562 18.77061625 0.91904296 18.62368164 -3.4375 18.3125 C-4.4275 17.6525 -5.4175 16.9925 -6.4375 16.3125 C-6.1075 15.3225 -5.7775 14.3325 -5.4375 13.3125 C-0.9825 14.3025 -0.9825 14.3025 3.5625 15.3125 C3.5625 13.9925 3.5625 12.6725 3.5625 11.3125 C2.469375 11.209375 1.37625 11.10625 0.25 11 C-3.4375 10.3125 -3.4375 10.3125 -5.4375 9.0625 C-6.4375 7.3125 -6.4375 7.3125 -6.25 4.75 C-4.96106047 0.88318141 -4.08558791 0.37141708 0 0 Z " fill="#D2943D" transform="translate(373.4375,461.6875)"/>
<path d="M0 0 C0.99 0 1.98 0 3 0 C3.06058594 0.92683594 3.12117188 1.85367187 3.18359375 2.80859375 C3.26738281 4.00613281 3.35117188 5.20367187 3.4375 6.4375 C3.51871094 7.63246094 3.59992188 8.82742188 3.68359375 10.05859375 C3.67656114 12.88570244 3.67656114 12.88570244 5 14 C7.5 14.16666667 7.5 14.16666667 10 14 C11.87824891 12.12175109 11.39102397 8.96064724 11.5625 6.4375 C11.64628906 5.23996094 11.73007813 4.04242188 11.81640625 2.80859375 C11.87699219 1.88175781 11.93757812 0.95492188 12 0 C12.99 0 13.98 0 15 0 C15.05418326 2.08304538 15.09287551 4.16649768 15.125 6.25 C15.14820313 7.41015625 15.17140625 8.5703125 15.1953125 9.765625 C15.00925052 12.84681133 14.71695953 14.4785909 13 17 C9.90826248 18.54586876 7.40570448 18.29359521 4 18 C1.7890625 16.43359375 1.7890625 16.43359375 0 14 C-0.390625 10.546875 -0.390625 10.546875 -0.25 6.75 C-0.21390625 5.48671875 -0.1778125 4.2234375 -0.140625 2.921875 C-0.09421875 1.95765625 -0.0478125 0.9934375 0 0 Z " fill="#DB9C41" transform="translate(119,462)"/>
<path d="M0 0 C0.99 0 1.98 0 3 0 C3.33 4.62 3.66 9.24 4 14 C5.98 14 7.96 14 10 14 C11.35091528 11.29816945 11.33858058 8.88191794 11.5625 5.875 C11.64628906 4.77929688 11.73007812 3.68359375 11.81640625 2.5546875 C11.87699219 1.71164062 11.93757813 0.86859375 12 0 C12.99 0 13.98 0 15 0 C15.10864945 2.06132142 15.18588321 4.12431321 15.25 6.1875 C15.29640625 7.33605469 15.3428125 8.48460937 15.390625 9.66796875 C14.92235278 13.66233079 13.88403596 15.24380252 11 18 C7.40669876 18.51332875 5.09088392 18.52029747 1.796875 16.94921875 C-0.47248069 14.48746116 -0.41476452 12.67500153 -0.3515625 9.40429688 C-0.31804687 8.71400391 -0.28453125 8.02371094 -0.25 7.3125 C-0.23195313 6.61060547 -0.21390625 5.90871094 -0.1953125 5.18554688 C-0.14826213 3.45644564 -0.07651873 1.72804795 0 0 Z " fill="#D4963E" transform="translate(466,462)"/>
<path d="M0 0 C1.9375 1.625 1.9375 1.625 3 4 C2.77962372 7.67293796 2.63033454 9.36966546 0 12 C-3.10347254 12.33015665 -5.15781176 12.50531294 -7.875 10.875 C-9.52854531 8.11909116 -9.39365568 6.14924548 -9 3 C-6.79848461 -0.66919231 -4.00961374 -0.58473534 0 0 Z " fill="#352E24" transform="translate(669,465)"/>
<path d="M0 0 C3.0625 0.3125 3.0625 0.3125 4.9375 1.4375 C6.59104531 4.19340884 6.45615568 6.16325452 6.0625 9.3125 C4.9375 11.1875 4.9375 11.1875 3.0625 12.3125 C0.0625 12.75 0.0625 12.75 -2.9375 12.3125 C-4.875 10.6875 -4.875 10.6875 -5.9375 8.3125 C-5.64908355 3.50555913 -5.26034464 0.55961113 0 0 Z " fill="#342D26" transform="translate(434.9375,464.6875)"/>
<path d="M0 0 C8.57342413 -0.46764132 14.97849751 0.95117332 21.5625 6.6875 C22.72105881 7.77830683 23.87173703 8.8778856 25 10 C24.67 10.99 24.34 11.98 24 13 C21 13 21 13 18.9375 11.25 C15.58901763 8.68520499 12.36676234 7.43074121 8.44921875 5.94921875 C5.51558359 4.81225967 2.78180792 3.46410943 0 2 C0 1.34 0 0.68 0 0 Z " fill="#41382A" transform="translate(715,341)"/>
<path d="M0 0 C3.0625 0.25 3.0625 0.25 6.0625 2.25 C6.25 5.875 6.25 5.875 6.0625 9.25 C4.7425 9.58 3.4225 9.91 2.0625 10.25 C2.3925 10.91 2.7225 11.57 3.0625 12.25 C0.1875 12.4375 0.1875 12.4375 -2.9375 12.25 C-5.38647847 8.57653229 -5.25287716 6.58643601 -4.9375 2.25 C-2.9375 0.25 -2.9375 0.25 0 0 Z " fill="#352D24" transform="translate(87.9375,464.75)"/>
<path d="M0 0 C4.62 0 9.24 0 14 0 C14 0.99 14 1.98 14 3 C12.35 3 10.7 3 9 3 C9 7.95 9 12.9 9 18 C7.68 18 6.36 18 5 18 C5 13.05 5 8.1 5 3 C3.35 3 1.7 3 0 3 C0 2.01 0 1.02 0 0 Z " fill="#C38B3B" transform="translate(755,462)"/>
<path d="M0 0 C0.33 1.32 0.66 2.64 1 4 C3.97 4.33 6.94 4.66 10 5 C6 6 6 6 3.10546875 5.79296875 C-1.03142144 6.06876143 -2.59785226 7.61067415 -5.6875 10.3125 C-6.61949219 11.11300781 -7.55148437 11.91351563 -8.51171875 12.73828125 C-10.3960781 14.45106628 -12.23013043 16.17093747 -14 18 C-15.04020647 15.44676593 -15.11130397 14.2941605 -14.125 11.6875 C-11.01956825 7.7600422 -7.23865005 4.66451371 -3 2 C-2.01 2 -1.02 2 0 2 C0 1.34 0 0.68 0 0 Z " fill="#3E3222" transform="translate(756,324)"/>
<path d="M0 0 C1.32 0 2.64 0 4 0 C4 4.95 4 9.9 4 15 C6.31 15 8.62 15 11 15 C11 15.99 11 16.98 11 18 C7.37 18 3.74 18 0 18 C0 12.06 0 6.12 0 0 Z " fill="#C38938" transform="translate(191,462)"/>
<path d="M0 0 C1.8125 0.1875 1.8125 0.1875 4 1 C5.625 3.5 5.625 3.5 7 6 C7.66 6.33 8.32 6.66 9 7 C9.309375 6.21625 9.61875 5.4325 9.9375 4.625 C11 2 11 2 12 0 C13.32 0.33 14.64 0.66 16 1 C15.57847656 1.556875 15.15695312 2.11375 14.72265625 2.6875 C10.96301438 7.92445997 9.23487068 11.54105639 9 18 C8.01 18 7.02 18 6 18 C5.98582031 17.43152344 5.97164063 16.86304688 5.95703125 16.27734375 C5.56772256 9.97475164 3.90802868 6.91008731 0 2 C0 1.34 0 0.68 0 0 Z " fill="#D6983F" transform="translate(281,462)"/>
<path d="M0 0 C0.66 0.33 1.32 0.66 2 1 C2.25099602 7.52589641 2.25099602 7.52589641 0.875 10.125 C-0.30795797 12.10723196 -0.30795797 12.10723196 0.875 14.75 C1.24625 15.4925 1.6175 16.235 2 17 C0.125 16.8125 0.125 16.8125 -2 16 C-3.25 13.4375 -3.25 13.4375 -4 11 C-3.34 11 -2.68 11 -2 11 C-2 10.34 -2 9.68 -2 9 C-4.97 8.505 -4.97 8.505 -8 8 C-8 6.02 -8 4.04 -8 2 C-5.36 2 -2.72 2 0 2 C0 1.34 0 0.68 0 0 Z " fill="#CA903C" transform="translate(707,463)"/>
<path d="M0 0 C1.32 0 2.64 0 4 0 C6.25 3 6.25 3 8 6 C8.5775 5.195625 9.155 4.39125 9.75 3.5625 C11.98126893 1.02133261 12.74456771 0.34879632 16 0 C15.05916753 2.60538222 14.29612862 4.66833595 12.4375 6.75 C10.21809807 10.2238465 10.25084684 13.95185104 10 18 C9.01 18 8.02 18 7 18 C6.91363281 17.3709375 6.82726562 16.741875 6.73828125 16.09375 C5.69437014 9.73451171 3.80155764 5.19449479 0 0 Z " fill="#D59840" transform="translate(788,462)"/>
<path d="M0 0 C4.29 0 8.58 0 13 0 C13 0.99 13 1.98 13 3 C11.35 3 9.7 3 8 3 C8 7.95 8 12.9 8 18 C7.01 18 6.02 18 5 18 C5 13.05 5 8.1 5 3 C3.35 3 1.7 3 0 3 C0 2.01 0 1.02 0 0 Z " fill="#DD9D41" transform="translate(248,462)"/>
<path d="M0 0 C1.35439668 2.70879335 1.06501451 5.00933268 1 8 C0.01 8.33 -0.98 8.66 -2 9 C-2.33 9.66 -2.66 10.32 -3 11 C-3 10.01 -3 9.02 -3 8 C-4.98 8 -6.96 8 -9 8 C-9 5.69 -9 3.38 -9 1 C-5.94152152 0.45627049 -3.11227195 0 0 0 Z " fill="#CD923B" transform="translate(515,463)"/>
<path d="M0 0 C1.66748747 2.50123121 2.89954361 4.77676357 4.125 7.5 C4.47820312 8.2734375 4.83140625 9.046875 5.1953125 9.84375 C6 12 6 12 6 15 C4.125 14.75 4.125 14.75 2 14 C1.71125 13.34 1.4225 12.68 1.125 12 C0.75375 11.34 0.3825 10.68 0 10 C-3.05908413 9.18415432 -3.05908413 9.18415432 -6 9 C-5.40138258 6.64828869 -4.73075648 4.3140622 -4 2 C-3.34 1.67 -2.68 1.34 -2 1 C-2 1.66 -2 2.32 -2 3 C-1.34 3 -0.68 3 0 3 C0 2.01 0 1.02 0 0 Z " fill="#D2943C" transform="translate(165,465)"/>
<path d="M0 0 C0.66 0.66 1.32 1.32 2 2 C-2.55863005 6.71058438 -6.83159912 6.61573896 -13 7 C-14.67278999 7.3011022 -16.34478822 7.61378392 -18 8 C-13.51972034 2.95968538 -7.12340932 -2.93316854 0 0 Z " fill="#D2973E" transform="translate(763,341)"/>
<path d="M0 0 C1.32 0 2.64 0 4 0 C4 5.94 4 11.88 4 18 C2.68 18 1.36 18 0 18 C0 12.06 0 6.12 0 0 Z " fill="#B98439" transform="translate(632,462)"/>
<path d="M0 0 C1.32 0 2.64 0 4 0 C4 5.94 4 11.88 4 18 C2.68 18 1.36 18 0 18 C0 12.06 0 6.12 0 0 Z " fill="#BB8437" transform="translate(342,462)"/>
<path d="M0 0 C1.32 0 2.64 0 4 0 C4 5.94 4 11.88 4 18 C2.68 18 1.36 18 0 18 C0 12.06 0 6.12 0 0 Z " fill="#BC883C" transform="translate(223,462)"/>
<path d="M0 0 C4.75 0.875 4.75 0.875 7 2 C9.37097727 6.55706182 10.38624638 10.85004829 10 16 C8.66666667 14.66666667 7.33333333 13.33333333 6 12 C4.6696875 10.8553125 4.6696875 10.8553125 3.3125 9.6875 C0.51217245 6.43306529 0.24829621 4.22103559 0 0 Z " fill="#DB993C" transform="translate(704,319)"/>
<path d="M0 0 C0.33 0 0.66 0 1 0 C1.33 8.25 1.66 16.5 2 25 C5.96 20.545 5.96 20.545 10 16 C11.32 15.01 12.64 14.02 14 13 C14.66 13.33 15.32 13.66 16 14 C13.90185329 16.15202209 11.79697945 18.29663616 9.6875 20.4375 C8.79514648 21.35499023 8.79514648 21.35499023 7.88476562 22.29101562 C7.01948242 23.1659668 7.01948242 23.1659668 6.13671875 24.05859375 C5.60780029 24.59798584 5.07888184 25.13737793 4.53393555 25.69311523 C3 27 3 27 0 28 C0 18.76 0 9.52 0 0 Z " fill="#D1D1D1" transform="translate(473,338)"/>
<path d="M0 0 C0.66 0.66 1.32 1.32 2 2 C2.99 1.67 3.98 1.34 5 1 C4.46105575 5.59808129 3.23428472 8.86784369 0.9375 12.875 C0.38964844 13.84179688 -0.15820312 14.80859375 -0.72265625 15.8046875 C-1.14417969 16.52914063 -1.56570313 17.25359375 -2 18 C-2.66 17.67 -3.32 17.34 -4 17 C-2.68 11.39 -1.36 5.78 0 0 Z " fill="#DD983A" transform="translate(734,322)"/>
<path d="M0 0 C0.99 0.33 1.98 0.66 3 1 C2.86722656 1.72445313 2.73445312 2.44890625 2.59765625 3.1953125 C2.23431428 5.18441089 1.87373126 7.17401484 1.515625 9.1640625 C1.13107163 11.27910603 0.72684818 13.39059108 0.3125 15.5 C-0.19815901 18.12461546 -0.19815901 18.12461546 1 21 C-3.455 20.01 -3.455 20.01 -8 19 C-8 18.67 -8 18.34 -8 18 C-6.02 18 -4.04 18 -2 18 C-1.84850702 14.37114676 -1.84850702 14.37114676 -3 11 C-2.59373098 9.10786597 -2.10271265 7.23333151 -1.5625 5.375 C-1.27503906 4.37210937 -0.98757813 3.36921875 -0.69140625 2.3359375 C-0.46324219 1.56507813 -0.23507812 0.79421875 0 0 Z " fill="#483721" transform="translate(731,323)"/>
<path d="M0 0 C1.98 0 3.96 0 6 0 C6.86375896 1.61992165 7.71575854 3.24611861 8.5625 4.875 C9.03816406 5.77992188 9.51382813 6.68484375 10.00390625 7.6171875 C10.49697266 8.79667969 10.49697266 8.79667969 11 10 C10.67 10.66 10.34 11.32 10 12 C9.67 12 9.34 12 9 12 C8.67 13.98 8.34 15.96 8 18 C7.34 18 6.68 18 6 18 C6.04125 16.783125 6.0825 15.56625 6.125 14.3125 C6.1375955 10.74797463 5.49243041 8.26469152 4 5 C4 4.01 4 3.02 4 2 C2.68 1.34 1.36 0.68 0 0 Z " fill="#483722" transform="translate(707,319)"/>
<path d="M0 0 C2.64 0 5.28 0 8 0 C8 0.33 8 0.66 8 1 C6.02 1 4.04 1 2 1 C2 3.31 2 5.62 2 8 C4.64 8 7.28 8 10 8 C10 8.66 10 9.32 10 10 C7.36 10 4.72 10 2 10 C2 11.98 2 13.96 2 16 C1.34 16 0.68 16 0 16 C0 10.72 0 5.44 0 0 Z " fill="#E6A038" transform="translate(564,463)"/>
<path d="M0 0 C0.99 0 1.98 0 3 0 C3 5.94 3 11.88 3 18 C2.01 18 1.02 18 0 18 C0 12.06 0 6.12 0 0 Z " fill="#DB9A3F" transform="translate(731,462)"/>
<path d="M0 0 C0 0.66 0 1.32 0 2 C-1.79143207 2.9795958 -3.58315304 3.9586633 -5.375 4.9375 C-6.37273438 5.48277344 -7.37046875 6.02804687 -8.3984375 6.58984375 C-9.92070346 7.4149759 -11.45128783 8.22564391 -13 9 C-13.66 7.35 -14.32 5.7 -15 4 C-5.77448747 -0.59225513 -5.77448747 -0.59225513 0 0 Z " fill="#403421" transform="translate(760,338)"/>
<path d="M0 0 C2.475 0.495 2.475 0.495 5 1 C5.33 3.64 5.66 6.28 6 9 C5.34 9 4.68 9 4 9 C3.67 13.29 3.34 17.58 3 22 C2.67 22 2.34 22 2 22 C1.93941406 21.0821875 1.87882813 20.164375 1.81640625 19.21875 C1.37688758 12.781492 0.89469001 6.39064295 0 0 Z " fill="#4A3A24" transform="translate(719,313)"/>
<path d="M0 0 C8.57342413 -0.46764132 14.97849751 0.95117332 21.5625 6.6875 C22.72105881 7.77830683 23.87173703 8.8778856 25 10 C24.67 10.99 24.34 11.98 24 13 C23.505 12.2575 23.01 11.515 22.5 10.75 C16.58702487 4.24572736 8.31431186 2.82914861 0 1 C0 0.67 0 0.34 0 0 Z " fill="#CA9449" transform="translate(715,341)"/>
<path d="M0 0 C1.9375 0.375 1.9375 0.375 4 1 C5.58873246 4.17746491 5.41026221 7.54012202 5 11 C3.5 13.5 3.5 13.5 2 15 C1.34 14.67 0.68 14.34 0 14 C0 13.01 0 12.02 0 11 C0.66 11 1.32 11 2 11 C1.855625 9.741875 1.71125 8.48375 1.5625 7.1875 C1.48128906 6.47980469 1.40007812 5.77210938 1.31640625 5.04296875 C1.02829265 2.80603607 1.02829265 2.80603607 0 0 Z " fill="#E09D3C" transform="translate(92,464)"/>
<path d="M0 0 C0.33 0.99 0.66 1.98 1 3 C2.32 2.67 3.64 2.34 5 2 C3.59155282 5.21524305 1.89655214 7.32183868 -0.625 9.75 C-1.57246094 10.67039062 -1.57246094 10.67039062 -2.5390625 11.609375 C-3.02117188 12.06828125 -3.50328125 12.5271875 -4 13 C-5 10 -5 10 -4.00390625 7.51953125 C-3.52824219 6.62621094 -3.05257812 5.73289062 -2.5625 4.8125 C-2.08941406 3.91144531 -1.61632812 3.01039063 -1.12890625 2.08203125 C-0.75636719 1.39496094 -0.38382813 0.70789063 0 0 Z " fill="#D0933D" transform="translate(740,329)"/>
<path d="M0 0 C0.33 0.99 0.66 1.98 1 3 C0.34 3 -0.32 3 -1 3 C-1 3.66 -1 4.32 -1 5 C-0.34 5 0.32 5 1 5 C1 5.66 1 6.32 1 7 C-0.65 7 -2.3 7 -4 7 C-4.33 7.99 -4.66 8.98 -5 10 C-5 9.01 -5 8.02 -5 7 C-5.99 6.67 -6.98 6.34 -8 6 C-7.01 4.35 -6.02 2.7 -5 1 C-3.35 1.33 -1.7 1.66 0 2 C0 1.34 0 0.68 0 0 Z " fill="#3A3024" transform="translate(752,310)"/>
<path d="M0 0 C1.4370809 -0.05422947 2.87475462 -0.09289723 4.3125 -0.125 C5.11300781 -0.14820313 5.91351562 -0.17140625 6.73828125 -0.1953125 C9 0 9 0 12 2 C12 2.66 12 3.32 12 4 C8.37 3.67 4.74 3.34 1 3 C1 4.65 1 6.3 1 8 C0.67 8 0.34 8 0 8 C0 5.36 0 2.72 0 0 Z " fill="#DD9C3D" transform="translate(598,462)"/>
<path d="M0 0 C2.31 0 4.62 0 7 0 C7.5625 1.9375 7.5625 1.9375 8 4 C7 5 7 5 3.4375 5.0625 C2.303125 5.041875 1.16875 5.02125 0 5 C0 3.35 0 1.7 0 0 Z " fill="#423521" transform="translate(600,465)"/>
<path d="M0 0 C1.98 0 3.96 0 6 0 C6 1.98 6 3.96 6 6 C4.02 6 2.04 6 0 6 C0 4.02 0 2.04 0 0 Z " fill="#CDCDCD" transform="translate(801,432)"/>
<path d="M0 0 C0.66 0.33 1.32 0.66 2 1 C-0.97 3.97 -0.97 3.97 -4 7 C-3.67 7.66 -3.34 8.32 -3 9 C-6.96 10.98 -6.96 10.98 -11 13 C-8.19834695 7.39669389 -5.00292442 3.75219332 0 0 Z " fill="#D1943F" transform="translate(752,332)"/>
<path d="M0 0 C0.66 0.66 1.32 1.32 2 2 C0 4 0 4 -1.9453125 4.1953125 C-3.96354167 4.13020833 -5.98177083 4.06510417 -8 4 C-7.625 2.0625 -7.625 2.0625 -7 0 C-4.29393021 -1.35303489 -2.8671629 -0.7884698 0 0 Z " fill="#F5A334" transform="translate(763,341)"/>
<path d="M0 0 C1.98 0 3.96 0 6 0 C6.33 1.65 6.66 3.3 7 5 C4.69 5 2.38 5 0 5 C0 3.35 0 1.7 0 0 Z " fill="#342B1F" transform="translate(566,465)"/>
<path d="M0 0 C0.66 0 1.32 0 2 0 C1.43628586 3.26954202 0.50037734 4.82575883 -2 7 C-3.98 6.34 -5.96 5.68 -8 5 C-8 4.01 -8 3.02 -8 2 C-5.36 2 -2.72 2 0 2 C0 1.34 0 0.68 0 0 Z " fill="#3E3221" transform="translate(379,463)"/>
<path d="M0 0 C1.98 0 3.96 0 6 0 C6.33 1.65 6.66 3.3 7 5 C4.69 5 2.38 5 0 5 C0 3.35 0 1.7 0 0 Z " fill="#382D22" transform="translate(699,465)"/>
<path d="M0 0 C1.98 0 3.96 0 6 0 C6.33 1.65 6.66 3.3 7 5 C4.69 5 2.38 5 0 5 C0 3.35 0 1.7 0 0 Z " fill="#352D1E" transform="translate(506,465)"/>
<path d="M0 0 C0.99 1.485 0.99 1.485 2 3 C1.34 3.66 0.68 4.32 0 5 C-0.9075 4.236875 -1.815 3.47375 -2.75 2.6875 C-5.114556 0.71516893 -7.51305942 -1.18262034 -10 -3 C-5.69051928 -4.9889911 -3.44889095 -2.69913205 0 0 Z " fill="#4B4137" transform="translate(737,350)"/>
<path d="M0 0 C1.48828125 0.98828125 1.48828125 0.98828125 3 3 C3.21714241 5.81127043 3.28284276 8.3883345 3.1875 11.1875 C3.17396484 11.93708984 3.16042969 12.68667969 3.14648438 13.45898438 C3.11118539 15.30629767 3.05737917 17.15324066 3 19 C2.67 19 2.34 19 2 19 C1.92652344 17.82630859 1.92652344 17.82630859 1.8515625 16.62890625 C1.77679687 15.61699219 1.70203125 14.60507812 1.625 13.5625 C1.55539062 12.55316406 1.48578125 11.54382813 1.4140625 10.50390625 C1.27742187 9.67761719 1.14078125 8.85132813 1 8 C0.34 7.67 -0.32 7.34 -1 7 C-0.67 4.69 -0.34 2.38 0 0 Z " fill="#382F22" transform="translate(723,320)"/>
<path d="M0 0 C2.31 0.33 4.62 0.66 7 1 C7 2.32 7 3.64 7 5 C4.125 5.125 4.125 5.125 1 5 C0.34 4.34 -0.32 3.68 -1 3 C-0.67 2.01 -0.34 1.02 0 0 Z " fill="#342E20" transform="translate(370,472)"/>
<path d="M0 0 C2.5654594 2.5654594 2.54046087 4.47686668 3 8 C1.02 8 -0.96 8 -3 8 C-1.125 1.125 -1.125 1.125 0 0 Z " fill="#503B23" transform="translate(162,466)"/>
<path d="M0 0 C1.32 0.66 2.64 1.32 4 2 C3.34 2 2.68 2 2 2 C2 2.99 2 3.98 2 5 C3.32 5 4.64 5 6 5 C6 5.66 6 6.32 6 7 C2.37 7 -1.26 7 -5 7 C-3 4 -3 4 0 3 C0 2.01 0 1.02 0 0 Z " fill="#C68F40" transform="translate(90,473)"/>
<path d="M0 0 C0.66 0.33 1.32 0.66 2 1 C-1.63 4.63 -5.26 8.26 -9 12 C-9 7.8407692 -6.75316432 5.85455565 -4 3 C-1.6875 1.125 -1.6875 1.125 0 0 Z " fill="#E0E0E0" transform="translate(92,348)"/>
<path d="M0 0 C0.66 0.33 1.32 0.66 2 1 C-1.63 4.63 -5.26 8.26 -9 12 C-9 8.00102358 -7.64683965 6.93298448 -5 4 C-3.36643049 2.62631655 -1.7074998 1.28062485 0 0 Z " fill="#E4E3E4" transform="translate(308,349)"/>
<path d="M0 0 C0.66 0.66 1.32 1.32 2 2 C1.6442194 5.37991574 0.64284201 8.04288438 -1 11 C-1.66 10.67 -2.32 10.34 -3 10 C-2.01 6.7 -1.02 3.4 0 0 Z " fill="#D39843" transform="translate(733,329)"/>
<path d="M0 0 C1.32 0.33 2.64 0.66 4 1 C3.34 1.66 2.68 2.32 2 3 C1.53603307 5.89223503 1.53603307 5.89223503 1.375 9.125 C1.30023437 10.22070312 1.22546875 11.31640625 1.1484375 12.4453125 C1.09945312 13.28835938 1.05046875 14.13140625 1 15 C0.67 15 0.34 15 0 15 C0 10.05 0 5.1 0 0 Z " fill="#E4E4E4" transform="translate(595,315)"/>
<path d="M0 0 C2.31 0.33 4.62 0.66 7 1 C7 1.99 7 2.98 7 4 C4.36 3.34 1.72 2.68 -1 2 C-0.67 1.34 -0.34 0.68 0 0 Z " fill="#DA9C43" transform="translate(372,462)"/>
<path d="M0 0 C0.99 0.33 1.98 0.66 3 1 C2.67 3.64 2.34 6.28 2 9 C1.67 8.34 1.34 7.68 1 7 C0.34 7 -0.32 7 -1 7 C-0.67 4.69 -0.34 2.38 0 0 Z " fill="#554121" transform="translate(731,323)"/>
<path d="M0 0 C0.33 0 0.66 0 1 0 C1.36256858 1.4562672 1.71479793 2.91511185 2.0625 4.375 C2.35833984 5.59316406 2.35833984 5.59316406 2.66015625 6.8359375 C3 9 3 9 2 11 C1.34 11 0.68 11 0 11 C0 7.37 0 3.74 0 0 Z " fill="#453823" transform="translate(732,313)"/>
<path d="M0 0 C0.99 0 1.98 0 3 0 C2.67 1.65 2.34 3.3 2 5 C1.01 5.33 0.02 5.66 -1 6 C-1.042721 4.33388095 -1.04063832 2.66617115 -1 1 C-0.67 0.67 -0.34 0.34 0 0 Z " fill="#322D20" transform="translate(744,317)"/>
<path d="M0 0 C0.99 0.33 1.98 0.66 3 1 C2.67 1.99 2.34 2.98 2 4 C-0.97 3.67 -3.94 3.34 -7 3 C-6.67 2.34 -6.34 1.68 -6 1 C-4.7934375 1.0309375 -4.7934375 1.0309375 -3.5625 1.0625 C-1.06645115 1.29633621 -1.06645115 1.29633621 0 0 Z " fill="#CB913B" transform="translate(130,475)"/>
<path d="M0 0 C2.475 0.99 2.475 0.99 5 2 C4.360625 2.103125 3.72125 2.20625 3.0625 2.3125 C2.381875 2.539375 1.70125 2.76625 1 3 C0.67 3.99 0.34 4.98 0 6 C-0.33 5.34 -0.66 4.68 -1 4 C-1.66 4.99 -2.32 5.98 -3 7 C-2.25 2.25 -2.25 2.25 0 0 Z " fill="#B6843C" transform="translate(370,462)"/>
<path d="M0 0 C-0.33 3.3 -0.66 6.6 -1 10 C-1.33 10 -1.66 10 -2 10 C-2 7.69 -2 5.38 -2 3 C-2.99 2.67 -3.98 2.34 -5 2 C-1.125 0 -1.125 0 0 0 Z " fill="#C1C1C1" transform="translate(368,410)"/>
<path d="M0 0 C0.66 0.66 1.32 1.32 2 2 C4.57061311 2.64767793 4.57061311 2.64767793 7 3 C7 3.33 7 3.66 7 4 C5.35 4 3.7 4 2 4 C1.67 4.99 1.34 5.98 1 7 C1 6.01 1 5.02 1 4 C0.01 3.67 -0.98 3.34 -2 3 C-1.34 2.01 -0.68 1.02 0 0 Z " fill="#584223" transform="translate(746,313)"/>
<path d="M0 0 C0.33 0 0.66 0 1 0 C1 2.31 1 4.62 1 7 C0.01 7 -0.98 7 -2 7 C-2 5.35 -2 3.7 -2 2 C-1.34 2 -0.68 2 0 2 C0 1.34 0 0.68 0 0 Z " fill="#2F2A24" transform="translate(735,311)"/>
<path d="M0 0 C1.32 0.33 2.64 0.66 4 1 C2.68 2.65 1.36 4.3 0 6 C0 5.34 0 4.68 0 4 C-0.66 3.67 -1.32 3.34 -2 3 C-1.34 2.01 -0.68 1.02 0 0 Z " fill="#C48F40" transform="translate(293,462)"/>
<path d="M0 0 C3.29714793 0.32971479 4.6226839 0.6226839 7 3 C6.01 3.66 5.02 4.32 4 5 C3.67 4.34 3.34 3.68 3 3 C0.47266765 2.34444881 0.47266765 2.34444881 -2 2 C-1.34 1.34 -0.68 0.68 0 0 Z " fill="#CB9242" transform="translate(758,340)"/>
</svg>
